<svg width="77" height="25" viewBox="0 0 77 25" fill="none" xmlns="http://www.w3.org/2000/svg">
<g id="visa-10 1" clip-path="url(#clip0_49_119)">
<path id="Vector" d="M50.1529 0.0302734C44.6856 0.0302734 39.7997 2.863 39.7997 8.09668C39.7997 14.0987 48.465 14.5132 48.465 17.5285C48.465 18.798 47.0095 19.9346 44.5235 19.9346C40.9954 19.9346 38.3586 18.3465 38.3586 18.3465L37.2303 23.6279C37.2303 23.6279 40.2679 24.9693 44.3009 24.9693C50.2784 24.9693 54.9819 21.9974 54.9819 16.6744C54.9819 10.3321 46.2807 9.92987 46.2807 7.13128C46.2807 6.13659 47.4755 5.04691 49.9543 5.04691C52.7512 5.04691 55.0331 6.20185 55.0331 6.20185L56.1373 1.101C56.1373 1.101 53.6544 0.0302734 50.1529 0.0302734ZM0.132418 0.41528L0 1.18522C0 1.18522 2.30013 1.60597 4.37173 2.4454C7.03906 3.40788 7.22914 3.96825 7.67834 5.7086L12.5735 24.5723H19.1357L29.2451 0.41528H22.698L16.2021 16.8397L13.5515 2.91755C13.3084 1.32421 12.077 0.41528 10.5697 0.41528H0.132418ZM31.8778 0.41528L26.7418 24.5722H32.985L38.1029 0.415203H31.8778V0.41528ZM66.698 0.41528C65.1926 0.41528 64.395 1.22097 63.8096 2.62885L54.663 24.5722H61.2101L62.4768 20.9149H70.4529L71.2232 24.5722H77L71.9603 0.41528H66.698ZM67.5495 6.94174L69.4902 16.0066H64.291L67.5495 6.94174Z" fill="#1434CB"/>
</g>
<defs>
<clipPath id="clip0_49_119">
<rect width="77" height="25" fill="white"/>
</clipPath>
</defs>
</svg>
